<svg height="511pt" viewBox="-94 0 511 511.99927" width="511pt" xmlns="http://www.w3.org/2000/svg"><path d="m321.359375 470.890625c-2.820313 5.753906-7.96875 9.605469-13.765625 10.988281-.257812.070313-.53125.125-.800781.179688 2.789062 5.574218 3.058593 12.328125.101562 18.351562-5.023437 10.261719-17.417969 14.5-27.679687 9.476563-8.945313-4.382813-13.316406-14.363281-10.957032-23.65625l-230.761718-113.070313c-5.898438 7.5625-16.464844 10.226563-25.410156 5.84375-10.257813-5.023437-14.496094-17.421875-9.472657-27.679687 2.910157-5.933594 8.292969-9.847657 14.296875-11.105469.089844-.03125.179688-.042969.269532-.066406-2.789063-5.574219-3.058594-12.328125-.101563-18.351563 5.023437-10.261719 17.417969-14.5 27.679687-9.472656 8.945313 4.382813 13.316407 14.359375 10.957032 23.65625l230.761718 113.070313c5.898438-7.566407 16.464844-10.230469 25.410157-5.847657 10.257812 5.023438 14.496093 17.421875 9.472656 27.683594zm0 0" fill="#d2d2d7"/><path d="m322.53125 138.871094c-.933594-63.894532-51.480469-117.664063-119.535156-133.875-13.71875-3.265625-28.148438-5.0078128-43.03125-4.996094-88.644532.0625-159.640625 62.332031-158.523438 139.109375.601563 41.148437 21.890625 84.925781 55.179688 116.703125 4.714844 4.507812 7.421875 10.71875 7.515625 17.246094l.289062 19.664062c.1875 12.664063 12.179688 22.902344 26.804688 22.894532l19.742187-.011719c5.027344 0 9.058594-3.535157 8.996094-7.898438-.113281-7.511719-.207031-14.28125-.332031-22.6875-.03125-2.289062 2.105469-4.175781 4.757812-4.175781h4.839844l15.164063-.011719c2.640624-.007812 4.839843 1.878907 4.871093 4.167969.050781 3.648438.257813 17.640625.351563 23.929688.011718.476562.074218.945312.199218 1.390624.496094 1.9375 1.957032 3.566407 3.925782 4.464844 1.089844.5 2.332031.789063 3.648437.789063l14.28125-.011719c4.25-.007812 7.628907-2.972656 7.578125-6.664062-.03125-2.0625-.261718-17.835938-.34375-23.917969-.039062-2.300781 2.105469-4.179688 4.757813-4.179688l20.046875-.019531c2.640625 0 4.839844 1.875 4.871094 4.167969.121093 8.269531.226562 15.140625.332031 22.695312.058593 4.355469 4.195312 7.886719 9.222656 7.878907l19.703125-.011719c14.625-.011719 26.367188-10.3125 26.179688-22.976563l-.28125-19.382812c-.101563-6.644532 2.53125-13.027344 7.257812-17.703125 32.210938-31.808594 52.132812-75.535157 51.53125-116.578125zm0 0" fill="#d2d2d7"/><path d="m271 255.449219c-4.726562 4.675781-7.359375 11.058593-7.257812 17.703125l.28125 19.382812c.1875 12.664063-11.554688 22.964844-26.179688 22.976563l-19.703125.011719c-5.027344.007812-9.164063-3.523438-9.222656-7.878907-.105469-7.554687-.210938-14.425781-.332031-22.695312-.03125-2.292969-2.230469-4.167969-4.871094-4.167969l-20.046875.019531c-2.652344 0-4.796875 1.878907-4.757813 4.179688.082032 6.082031.3125 21.855469.34375 23.917969.050782 3.691406-3.328125 6.65625-7.578125 6.664062l-14.28125.011719c-1.316406 0-2.558593-.289063-3.648437-.789063-1.328125-1.460937-2.640625-2.953125-3.925782-4.464844-7.691406-9.007812-14.585937-18.875-20.585937-29.476562-16.65625-29.476562-26.324219-64.582031-26.324219-102.265625 0-77.792969 41.207032-144.613281 100.085938-173.582031 68.054687 16.210937 118.601562 69.980468 119.535156 133.875.601562 41.042968-19.320312 84.769531-51.53125 116.578125zm0 0" fill="#ebebf0"/><path d="m311.886719 379.003906c-8.945313 4.382813-19.511719 1.71875-25.410157-5.847656l-230.761718 113.074219c2.359375 9.292969-2.011719 19.273437-10.957032 23.65625-10.261718 5.023437-22.65625.785156-27.679687-9.476563-2.808594-5.71875-2.707031-12.089844-.304687-17.484375.125-.292969.257812-.585937.40625-.867187-6.117188-1.210938-11.609376-5.144532-14.566407-11.167969-5.023437-10.261719-.785156-22.660156 9.472657-27.683594 8.945312-4.382812 19.511718-1.71875 25.410156 5.847657l230.761718-113.074219c-2.359374-9.292969 2.011719-19.273438 10.957032-23.65625 10.261718-5.023438 22.65625-.785157 27.679687 9.476562 2.957031 6.023438 2.6875 12.777344-.101562 18.351563.113281.023437.238281.042968.347656.078125 5.980469 1.28125 11.316406 5.179687 14.21875 11.089843 5.023437 10.261719.785156 22.660157-9.472656 27.683594zm0 0" fill="#ebebf0"/><g fill="#4b5055"><path d="m133.421875 143.828125c-8.871094 22.46875-31.414063 36.046875-50.289063 30.3125-17.617187-5.378906-25.890624-25.609375-19.773437-46.523437.445313-1.535157.972656-3.078126 1.585937-4.625 8.871094-22.507813 31.371094-36.085938 50.289063-30.324219 9.71875 2.953125 16.601563 10.445312 19.773437 20.085937 3.015626 9.109375 2.726563 20.136719-1.585937 31.074219zm0 0"/><path d="m163.199219 222.199219c-9.1875.007812-16.738281-7.082031-16.867188-15.835938-.125-8.753906 6.816407-43.414062 16.003907-43.421875 9.183593-.007812 17.136718 34.644532 17.261718 43.398438.128906 8.753906-7.214844 15.851562-16.398437 15.859375zm0 0"/><path d="m241.90625 174.027344c-18.75 5.761718-41.644531-7.78125-51.167969-30.242188-4.839843-11.433594-5.289062-22.96875-2.105469-32.304687 3.078126-9.050781 9.578126-16.035157 18.800782-18.875 18.75-5.804688 41.644531 7.742187 51.167968 30.242187.832032 1.949219 1.523438 3.898438 2.105469 5.847656 6.042969 20.457032-1.691406 40.035157-18.800781 45.332032zm0 0"/></g><path d="m135.007812 112.753906c-.445312 1.542969-.972656 3.097656-1.585937 4.644532-8.871094 22.46875-31.414063 36.046874-50.289063 30.316406-9.71875-2.964844-16.601562-10.460938-19.773437-20.097656.445313-1.535157.972656-3.078126 1.585937-4.625 8.871094-22.507813 31.371094-36.085938 50.289063-30.324219 9.71875 2.953125 16.601563 10.445312 19.773437 20.085937zm0 0" fill="#5a5f64"/><path d="m260.707031 128.695312c-3.089843 9.046876-9.578125 16.042969-18.800781 18.902344-18.75 5.765625-41.644531-7.78125-51.167969-30.242187-.832031-1.957031-1.535156-3.917969-2.105469-5.875 3.078126-9.050781 9.578126-16.035157 18.800782-18.875 18.75-5.804688 41.644531 7.742187 51.167968 30.242187.832032 1.949219 1.523438 3.898438 2.105469 5.847656zm0 0" fill="#5a5f64"/></svg>