<svg height="512pt" viewBox="-11 0 512 512.00013" width="512pt" xmlns="http://www.w3.org/2000/svg"><path d="m72.46875 439.53125h-42.449219l-21.226562 21.226562c-11.722657 11.722657-11.722657 30.726563 0 42.449219 11.722656 11.722657 30.726562 11.722657 42.449219 0l21.226562-21.226562zm0 0" fill="#ffd396"/><path d="m51.242188 503.207031 21.226562-21.226562v-42.449219l-63.675781 63.675781c11.722656 11.722657 30.726562 11.722657 42.449219 0zm0 0" fill="#ffb64c"/><path d="m178.597656 375.855469v-42.453125h-42.453125l.957031 20.269531-22.179687.957031-21.226563 21.226563v21.222656h-21.226562l-21.226562 21.226563-.882813 22.109374-20.339844-.882812 21.222657 21.226562 21.226562 21.222657.886719-22.109375 20.339843.886718 21.226563-21.226562v-21.226562h21.222656l21.226563-21.226563-3.09375-18.128906zm0 0" fill="#7c8388"/><path d="m73.355469 459.871094 20.339843.886718 21.226563-21.226562v-21.226562h21.222656l21.226563-21.226563-3.09375-18.128906 24.320312-3.09375v-42.453125l-127.355468 127.355468 21.226562 21.222657zm0 0" fill="#575f64"/><path d="m476.734375 74.539062 12.09375-51.367187 1.917969-8.132813c0-13.371093-16.167969-20.066406-25.621094-10.613281l-307.753906 307.75 21.226562 21.226563 21.222656 21.226562 272.917969-272.917968c1.972657-1.96875 3.355469-4.457032 3.996094-7.171876zm0 0" fill="#f2f2fc"/><path d="m472.738281 81.710938c1.972657-1.972657 3.355469-4.457032 3.996094-7.171876l12.09375-51.367187-310.230469 310.230469 21.222656 21.226562zm0 0" fill="#d8d8fc"/><path d="m231.648438 344-31.828126-31.824219-31.824218-31.824219c-7.886719-7.890624-21.324219-4.71875-24.851563 5.867188l-7 47.183594 21.226563 21.222656 21.222656 21.226562 47.183594-7c10.589844-3.527343 13.757812-16.960937 5.871094-24.851562zm0 0" fill="#ffd396"/><g fill="#575f64"><path d="m93.695312 375.855469-21.226562 21.222656 42.453125 42.453125 21.222656-21.226562-21.222656-21.226563zm0 0"/><path d="m51.242188 418.304688-21.222657 21.226562 21.222657 21.226562 21.226562 21.222657 21.226562-21.222657zm0 0"/><path d="m157.371094 354.628906-21.226563-21.226562-21.222656 21.226562 21.222656 21.226563 21.226563 21.222656 21.226562-21.222656zm0 0"/></g><path d="m136.140625 375.851562 21.226563-21.222656 21.226562 21.222656-21.226562 21.226563zm0 0" fill="#32393f"/><path d="m93.691406 418.304688 21.226563-21.226563 21.222656 21.226563-21.222656 21.222656zm0 0" fill="#32393f"/><path d="m51.238281 460.753906 21.226563-21.226562 21.226562 21.226562-21.226562 21.226563zm0 0" fill="#32393f"/><path d="m225.78125 368.855469c10.585938-3.53125 13.757812-16.964844 5.867188-24.855469l-31.824219-31.824219-42.453125 42.449219 21.226562 21.226562zm0 0" fill="#ffb64c"/></svg>